# xmcd CD database file
#
# Track frame offsets:
#	150
#	9062
#	20462
#	30287
#	41575
#	51137
#	62350
#	69687
#	79812
#	88562
#	97862
#	107675
#	119100
#	129612
#	142075
#	154437
#	166837
#	177637
#	192962
#	203250
#	213775
#	224875
#	236212
#	245250
#
# Disc length: 3374 seconds
#
# Revision: 3
# Processed by: cddbd v1.5.2PL0 Copyright (c) Steve Scherf et al.
# Submitted via: jetAudio 7
#
DISCID=4c0d2c18
DTITLE=Chet Atkins - Mister Guitar and Chet Atkins In Three Dimensions
DYEAR=1900
DGENRE=Country
TTITLE0=I Know That You Know
TTITLE1=Rainbow
TTITLE2=Hello Bluebird
TTITLE3=Siesta
TTITLE4=Country Style
TTITLE5=Show Me The Way To Go Home
TTITLE6=I'm Forever Blowing Bubbles
TTITLE7=Backwoods
TTITLE8=Country Gentleman
TTITLE9=Slinkey
TTITLE10=Jessie
TTITLE11=Piano Concerto In B Flat Minor
TTITLE12=Arkansas Traveler
TTITLE13=Londonderry Air
TTITLE14=Ochi Chornya (Dark Eyes)
TTITLE15=La Golondrina (The Swallow)
TTITLE16=Blues In The Night
TTITLE17=Tenderly
TTITLE18=Little Rock Getaway
TTITLE19=Tip-Toe Through The Tulips With Me
TTITLE20=Minuet (From French Harpsichord Suite) - Prelude (From Six Shor
TTITLE21=Intermezzo
TTITLE22=Schön Rosmarin
TTITLE23=Minute Waltz
EXTD=
EXTT0=
EXTT1=
EXTT2=
EXTT3=
EXTT4=
EXTT5=
EXTT6=
EXTT7=
EXTT8=
EXTT9=
EXTT10=
EXTT11=
EXTT12=
EXTT13=
EXTT14=
EXTT15=
EXTT16=
EXTT17=
EXTT18=
EXTT19=
EXTT20=
EXTT21=
EXTT22=
EXTT23=
PLAYORDER=
